<svg width="1440" height="332" viewBox="0 0 1440 332" fill="none" xmlns="http://www.w3.org/2000/svg">
<path opacity="0.2" d="M-23 0.00147964C-23 0.00147964 180.263 32.0572 313.5 33.269C471.522 34.7062 556.174 -0.261826 714.25 0.00147964C867.108 0.256094 948.673 34.3532 1101.5 33.269C1235.52 32.3182 1440 0.00147969 1440 0.00147969V331.991C1440 331.991 1226.55 299.475 1086 299.066C938.625 298.637 861.619 331.369 714.25 331.991C555.714 332.66 471.976 297.434 313.5 299.066C179.72 300.444 -23 331.991 -23 331.991V0.00147964Z" fill="#F47342"/>
<path opacity="0.2" d="M-23 6.91834C-23 6.91834 180.263 32.1055 313.5 33.3168C471.522 34.7535 556.174 6.65513 714.25 6.91834C867.108 7.17286 948.673 34.4006 1101.5 33.3168C1235.52 32.3664 1440 6.91834 1440 6.91834V325.072C1440 325.072 1226.55 299.425 1086 299.016C938.625 298.587 861.619 324.45 714.25 325.072C555.714 325.74 471.976 297.384 313.5 299.016C179.72 300.393 -23 325.072 -23 325.072V6.91834Z" fill="#F47342"/>
<path d="M-23 13.8359C-23 13.8359 180.263 32.1589 313.5 33.3697C471.522 34.8058 556.174 13.5728 714.25 13.8359C867.108 14.0903 948.673 34.4531 1101.5 33.3697C1235.52 32.4196 1440 13.8359 1440 13.8359V318.152C1440 318.152 1226.55 299.37 1086 298.96C938.625 298.531 861.619 317.53 714.25 318.152C555.714 318.82 471.976 297.33 313.5 298.96C179.72 300.337 -23 318.152 -23 318.152V13.8359Z" fill="url(#paint0_linear_1930_40567)"/>
<defs>
<linearGradient id="paint0_linear_1930_40567" x1="708.5" y1="13.8335" x2="708.5" y2="318.167" gradientUnits="userSpaceOnUse">
<stop stop-color="#F0725C"/>
<stop offset="1" stop-color="#FE3511"/>
</linearGradient>
</defs>
</svg>
