<svg width="56" height="58" viewBox="0 0 56 58" fill="none" xmlns="http://www.w3.org/2000/svg">
<path d="M11.5417 53.1238L14.4978 52.8167C18.5945 52.3917 22.4145 56.1781 26.2154 55.7834C30.368 55.3591 41.4334 46.9353 52.924 38.5473C53.6696 38.0034 53.9429 36.8534 53.489 35.973C51.1487 31.4273 47.45 30.0429 44.4219 31.6355L34.5288 37.0177C33.5269 34.9738 32.0098 32.8445 29.0983 33.429L20.4537 35.2609C17.4516 35.548 15.3497 32.492 12.4287 32.795L10.5071 33.0738" stroke="url(#paint0_linear_735_36986)" stroke-width="3.5"/>
<path d="M10.0564 53.6411C10.0564 53.7282 10.0335 53.7882 10.0138 53.8224H2.48607C2.46644 53.7883 2.4436 53.7286 2.4436 53.6419V29.9305C2.4436 29.8438 2.46644 29.7841 2.48607 29.75H10.0139C10.0336 29.7841 10.0564 29.8438 10.0564 29.9305V53.6411Z" stroke="url(#paint1_linear_735_36986)" stroke-width="3.5"/>
<path fill-rule="evenodd" clip-rule="evenodd" d="M14.2815 17.5C14.2815 9.64984 20.6501 3.28125 28.5002 3.28125C36.3504 3.28125 42.719 9.64984 42.719 17.5C42.719 25.3502 36.3504 31.7188 28.5002 31.7188C20.6501 31.7188 14.2815 25.3502 14.2815 17.5ZM28.5002 5.46875C21.8582 5.46875 16.469 10.858 16.469 17.5C16.469 24.142 21.8582 29.5312 28.5002 29.5312C35.1423 29.5312 40.5315 24.142 40.5315 17.5C40.5315 10.858 35.1423 5.46875 28.5002 5.46875Z" fill="url(#paint2_linear_735_36986)"/>
<path d="M25.7878 22.8622L33.6115 18.1358C33.7205 18.0694 33.8107 17.976 33.8732 17.8647C33.9358 17.7533 33.9686 17.6278 33.9686 17.5001C33.9686 17.3724 33.9358 17.2468 33.8732 17.1355C33.8107 17.0242 33.7205 16.9308 33.6115 16.8643L25.7878 12.138C25.6756 12.0708 25.5476 12.0346 25.4169 12.0332C25.2862 12.0319 25.1574 12.0653 25.0439 12.13C24.9303 12.1948 24.8361 12.2886 24.7707 12.4019C24.7054 12.5151 24.6714 12.6437 24.6721 12.7744V22.2258C24.6714 22.3565 24.7054 22.4851 24.7707 22.5983C24.8361 22.7115 24.9303 22.8053 25.0439 22.8701C25.1574 22.9349 25.2862 22.9683 25.4169 22.9669C25.5476 22.9655 25.6756 22.9294 25.7878 22.8622Z" fill="url(#paint3_linear_735_36986)"/>
<defs>
<linearGradient id="paint0_linear_735_36986" x1="32.1085" y1="31" x2="32.1085" y2="55.8123" gradientUnits="userSpaceOnUse">
<stop stop-color="#F0725C"/>
<stop offset="1" stop-color="#FE3511"/>
</linearGradient>
<linearGradient id="paint1_linear_735_36986" x1="6.25" y1="28" x2="6.25" y2="55.5724" gradientUnits="userSpaceOnUse">
<stop stop-color="#F0725C"/>
<stop offset="1" stop-color="#FE3511"/>
</linearGradient>
<linearGradient id="paint2_linear_735_36986" x1="28.5002" y1="3.28125" x2="28.5002" y2="31.7188" gradientUnits="userSpaceOnUse">
<stop stop-color="#F0725C"/>
<stop offset="1" stop-color="#FE3511"/>
</linearGradient>
<linearGradient id="paint3_linear_735_36986" x1="29.3204" y1="12.0332" x2="29.3204" y2="22.967" gradientUnits="userSpaceOnUse">
<stop stop-color="#F0725C"/>
<stop offset="1" stop-color="#FE3511"/>
</linearGradient>
</defs>
</svg>
