<svg width="1440" height="755" viewBox="0 0 1440 755" fill="none" xmlns="http://www.w3.org/2000/svg">
<path opacity="0.2" d="M-12 0.00336484C-12 0.00336484 191.263 72.9012 324.5 75.6569C482.522 78.9252 567.174 -0.595416 725.25 0.00336484C878.108 0.582382 959.673 78.1225 1112.5 75.6569C1246.52 73.4946 1451 0.00336496 1451 0.00336496V754.979C1451 754.979 1237.55 681.036 1097 680.105C949.625 679.129 872.619 753.564 725.25 754.979C566.714 756.5 482.976 676.393 324.5 680.105C190.72 683.238 -12 754.979 -12 754.979V0.00336484Z" fill="#F47342"/>
<path opacity="0.2" d="M-12 15.7332C-12 15.7332 191.263 73.0112 324.5 75.7659C482.522 79.033 567.174 15.1346 725.25 15.7332C878.108 16.312 959.673 78.2306 1112.5 75.7659C1246.52 73.6044 1451 15.7332 1451 15.7332V739.244C1451 739.244 1237.55 680.922 1097 679.991C949.625 679.015 872.619 737.83 725.25 739.244C566.714 740.765 482.976 676.281 324.5 679.991C190.72 683.123 -12 739.244 -12 739.244V15.7332Z" fill="#F47342"/>
<path d="M-12 31.464C-12 31.464 191.263 73.1321 324.5 75.8857C482.522 79.1515 567.174 30.8657 725.25 31.464C878.108 32.0426 959.673 78.3494 1112.5 75.8857C1246.52 73.7251 1451 31.464 1451 31.464V723.507C1451 723.507 1237.55 680.795 1097 679.865C949.625 678.889 872.619 722.094 725.25 723.507C566.714 725.027 482.976 676.156 324.5 679.865C190.72 682.995 -12 723.507 -12 723.507V31.464Z" fill="url(#paint0_linear_840_32192)"/>
<defs>
<linearGradient id="paint0_linear_840_32192" x1="719.5" y1="31.4585" x2="719.5" y2="723.542" gradientUnits="userSpaceOnUse">
<stop stop-color="#F0725C"/>
<stop offset="1" stop-color="#FE3511"/>
</linearGradient>
</defs>
</svg>
