<svg width="1440" height="962" viewBox="0 0 1440 962" fill="none" xmlns="http://www.w3.org/2000/svg">
<path opacity="0.2" d="M-23 0.00428739C-23 0.00428739 180.263 92.8886 313.5 96.3999C471.522 100.564 556.174 -0.758663 714.25 0.00428739C867.108 0.742055 948.673 99.5415 1101.5 96.3999C1235.52 93.6448 1440 0.00428754 1440 0.00428754V961.973C1440 961.973 1226.55 867.757 1086 866.571C938.625 865.327 861.619 960.171 714.25 961.973C555.714 963.911 471.976 861.842 313.5 866.571C179.72 870.563 -23 961.973 -23 961.973V0.00428739Z" fill="#F47342"/>
<path opacity="0.2" d="M-23 20.0468C-23 20.0468 180.263 93.0289 313.5 96.5388C471.522 100.702 556.174 19.2842 714.25 20.0468C867.108 20.7843 948.673 99.6793 1101.5 96.5388C1235.52 93.7847 1440 20.0468 1440 20.0468V941.924C1440 941.924 1226.55 867.612 1086 866.426C938.625 865.182 861.619 940.123 714.25 941.924C555.714 943.862 471.976 861.698 313.5 866.426C179.72 870.416 -23 941.924 -23 941.924V20.0468Z" fill="#F47342"/>
<path d="M-23 40.0905C-23 40.0905 180.263 93.1829 313.5 96.6914C471.522 100.853 556.174 39.3282 714.25 40.0905C867.108 40.8277 948.673 99.8306 1101.5 96.6914C1235.52 93.9384 1440 40.0905 1440 40.0905V921.873C1440 921.873 1226.55 867.45 1086 866.265C938.625 865.022 861.619 920.072 714.25 921.873C555.714 923.81 471.976 861.539 313.5 866.265C179.72 870.254 -23 921.873 -23 921.873V40.0905Z" fill="url(#paint0_linear_1554_7081)"/>
<defs>
<linearGradient id="paint0_linear_1554_7081" x1="708.5" y1="40.0835" x2="708.5" y2="921.917" gradientUnits="userSpaceOnUse">
<stop stop-color="#F0725C"/>
<stop offset="1" stop-color="#FE3511"/>
</linearGradient>
</defs>
</svg>
