<svg width="50" height="50" viewBox="0 0 50 50" fill="none" xmlns="http://www.w3.org/2000/svg">
<path d="M9.40248 46.8961C9.27455 46.8961 9.14662 46.8961 9.01771 46.8844C7.78124 46.8105 6.59442 46.3717 5.60716 45.6236C4.6199 44.8755 3.87648 43.8516 3.47083 42.6813C3.06517 41.5109 3.01546 40.2465 3.32797 39.0479C3.64049 37.8493 4.30122 36.7702 5.2267 35.9469L21.4894 21.1012C21.6997 20.9067 21.8519 20.6577 21.9293 20.3819C22.0067 20.1061 22.0062 19.8142 21.9279 19.5387C20.4757 14.3727 21.3742 9.69105 24.3937 6.69398C27.8829 3.22816 33.4523 2.14808 37.9328 4.06703C38.2371 4.19745 38.4955 4.41592 38.6748 4.69436C38.854 4.97279 38.9459 5.29847 38.9386 5.62953C38.9325 6.06151 38.7572 6.47387 38.4503 6.77796L32.5783 12.6442C32.2866 12.9388 32.123 13.3366 32.123 13.7511C32.123 14.1657 32.2866 14.5635 32.5783 14.858L35.1701 17.4498C35.4646 17.7401 35.8615 17.9028 36.275 17.9028C36.6886 17.9028 37.0855 17.7401 37.38 17.4498L43.2824 11.5426C43.4683 11.3565 43.6958 11.2172 43.9462 11.1363C44.1965 11.0554 44.4625 11.0351 44.7222 11.0772C44.9819 11.1193 45.2279 11.2224 45.4399 11.3782C45.6519 11.534 45.8238 11.738 45.9415 11.9733L45.9494 11.9889C46.8546 13.8444 47.1212 16.3532 46.6906 18.858C46.2296 21.5162 45.0304 23.9088 43.3214 25.5963C40.3497 28.526 35.7189 29.4284 30.6173 28.0621C30.345 27.9897 30.058 27.9929 29.7874 28.0713C29.5167 28.1498 29.2726 28.3006 29.0812 28.5075L14.0724 44.7985C13.4851 45.4566 12.7656 45.9836 11.961 46.345C11.1564 46.7064 10.2846 46.8942 9.40248 46.8961ZM33.2609 6.25746C30.8136 6.25746 28.3214 7.19593 26.591 8.91468C23.4796 12.0016 24.3937 16.7828 24.9308 18.695C25.1662 19.525 25.1667 20.4041 24.9322 21.2344C24.6977 22.0648 24.2375 22.8138 23.6027 23.3981L23.5949 23.4049L7.30971 38.2809C7.00096 38.5546 6.74914 38.8864 6.56862 39.2574C6.38811 39.6284 6.28243 40.0313 6.25763 40.4431C6.23283 40.8549 6.28939 41.2676 6.42408 41.6576C6.55876 42.0476 6.76894 42.4072 7.04262 42.716C7.31629 43.0247 7.64809 43.2765 8.01909 43.457C8.39008 43.6376 8.793 43.7432 9.20483 43.768C9.61666 43.7928 10.0293 43.7363 10.4193 43.6016C10.8093 43.4669 11.1689 43.2567 11.4777 42.983C11.5721 42.8995 11.6611 42.8102 11.7443 42.7155L11.7648 42.694L26.7902 26.3854C27.3676 25.761 28.1044 25.306 28.9213 25.0693C29.7382 24.8327 30.6042 24.8235 31.4259 25.0426C33.3224 25.5504 38.0587 26.403 41.13 23.3707C43.1554 21.3766 43.9845 18.11 43.7189 15.5319L39.588 19.6657C38.7068 20.5375 37.5172 21.0266 36.2775 21.0266C35.0378 21.0266 33.8482 20.5375 32.9669 19.6657L30.3683 17.068C29.4949 16.1864 29.0049 14.9955 29.0049 13.7545C29.0049 12.5135 29.4949 11.3227 30.3683 10.441L34.4699 6.33949C34.0691 6.28604 33.6652 6.25864 33.2609 6.25746ZM45.4992 13.7467L45.4943 13.7526L45.4992 13.7467Z" fill="url(#paint0_linear_731_54249)"/>
<path d="M9.37524 42.1875C10.2382 42.1875 10.9377 41.4879 10.9377 40.625C10.9377 39.7621 10.2382 39.0625 9.37524 39.0625C8.5123 39.0625 7.81274 39.7621 7.81274 40.625C7.81274 41.4879 8.5123 42.1875 9.37524 42.1875Z" fill="url(#paint1_linear_731_54249)"/>
<circle cx="39.0002" cy="11" r="2.25" stroke="url(#paint2_linear_731_54249)" stroke-width="3.5"/>
<defs>
<linearGradient id="paint0_linear_731_54249" x1="25.0085" y1="3.125" x2="25.0085" y2="46.8961" gradientUnits="userSpaceOnUse">
<stop stop-color="#F0725C"/>
<stop offset="1" stop-color="#FE3511"/>
</linearGradient>
<linearGradient id="paint1_linear_731_54249" x1="9.37524" y1="39.0625" x2="9.37524" y2="42.1875" gradientUnits="userSpaceOnUse">
<stop stop-color="#F0725C"/>
<stop offset="1" stop-color="#FE3511"/>
</linearGradient>
<linearGradient id="paint2_linear_731_54249" x1="39.0002" y1="7" x2="39.0002" y2="15" gradientUnits="userSpaceOnUse">
<stop stop-color="#F0725C"/>
<stop offset="1" stop-color="#FE3511"/>
</linearGradient>
</defs>
</svg>
